<?xml version="1.0" encoding="utf-8"?>
<!-- Generator: Adobe Illustrator 23.0.4, SVG Export Plug-In . SVG Version: 6.00 Build 0)  -->
<svg version="1.1" id="Layer_1" xmlns="http://www.w3.org/2000/svg" xmlns:xlink="http://www.w3.org/1999/xlink" x="0px" y="0px"
	 viewBox="0 0 340.2 170.1" style="enable-background:new 0 0 340.2 170.1;" xml:space="preserve">
<style type="text/css">
	.st0{fill:#C10230;}
	.st1{fill:#FFFFFF;}
	.st2{fill:url(#SVGID_1_);}
	.st3{fill:url(#SVGID_2_);}
	.st4{fill:#931222;}
	.st5{fill:url(#SVGID_3_);}
	.st6{fill:url(#SVGID_4_);}
	.st7{fill:url(#SVGID_5_);}
	.st8{fill:url(#SVGID_6_);}
	.st9{fill:#FF8300;}
	.st10{fill:url(#SVGID_7_);}
	.st11{fill:url(#SVGID_8_);}
	.st12{fill:#FF9015;}
	.st13{fill:url(#SVGID_9_);}
	.st14{fill:url(#SVGID_10_);}
	.st15{fill:url(#SVGID_11_);}
	.st16{fill:url(#SVGID_12_);}
	.st17{fill:#58595B;}
	.st18{fill:url(#SVGID_15_);}
	.st19{fill:url(#SVGID_16_);}
</style>
<g>
	<g>
		<path class="st0" d="M65.6,128.8c0,0.5-0.3,0.9-1,1c-1.5,0.2-2.9,0.4-4.2,0.4c-2.1,0-3.7-0.2-4.9-0.6c-1.2-0.4-2.1-1.2-2.6-2.4
			c-0.6-1.2-0.9-3-0.9-5.3V105l-4.4-0.7c-0.7-0.1-1.1-0.5-1.1-1.1v-2.4c0-0.3,0.1-0.5,0.3-0.7c0.2-0.2,0.5-0.3,0.8-0.3H52v-5
			c0-0.6,0.4-0.9,1.1-1.1l4.9-0.9h0.2c0.6,0,0.8,0.3,0.8,0.8v6.1h5.4c0.3,0,0.6,0.1,0.8,0.3c0.2,0.2,0.3,0.4,0.3,0.8v3.1
			c0,0.3-0.1,0.5-0.3,0.7c-0.2,0.2-0.5,0.3-0.7,0.3H59v16.6c0,1.3,0.1,2.1,0.3,2.5c0.2,0.3,0.8,0.5,1.7,0.5h3.4
			c0.7,0,1.1,0.3,1.1,0.8V128.8z"/>
		<path class="st0" d="M93.9,128.5c0,0.3-0.1,0.5-0.3,0.8c-0.2,0.2-0.5,0.3-0.7,0.3H88c-0.3,0-0.5-0.1-0.7-0.3
			c-0.2-0.2-0.3-0.5-0.3-0.8v-17.4c0-1.6-0.1-2.8-0.3-3.6c-0.2-0.8-0.7-1.3-1.3-1.7s-1.5-0.5-2.7-0.5c-1.8,0-3.8,0.6-6.2,1.8v21.4
			c0,0.3-0.1,0.6-0.3,0.8c-0.2,0.2-0.5,0.3-0.8,0.3h-4.9c-0.3,0-0.6-0.1-0.8-0.3c-0.2-0.2-0.3-0.5-0.3-0.8v-39
			c0-0.3,0.1-0.5,0.3-0.7s0.5-0.3,0.7-0.3h4.9c0.3,0,0.5,0.1,0.7,0.3s0.3,0.5,0.3,0.7v11.8c2.1-1.3,4.8-1.9,8-1.9
			c6.3,0,9.5,3.9,9.5,11.7V128.5z"/>
		<path class="st0" d="M112.6,130.1c-2.2,0-4.4-0.4-6.4-1.2c-2-0.8-3.7-2.2-5.1-4.2c-1.3-2-2-4.6-2-7.9v-3.9c0-2.7,0.5-5.1,1.5-7.1
			c1-2.1,2.4-3.6,4.4-4.7c1.9-1.1,4.2-1.6,6.9-1.6c2.7,0,4.9,0.6,6.8,1.7c1.9,1.1,3.3,2.7,4.3,4.7c1,2,1.5,4.4,1.5,7v2.9
			c0,0.9-0.4,1.3-1.1,1.3H106v0.2c0,2,0.5,3.6,1.5,4.9c1,1.2,2.9,1.9,5.6,1.9c1.5,0,3.1-0.1,4.8-0.5c1.7-0.3,3.1-0.6,4.2-1
			c0.7-0.2,1.1,0.1,1.1,0.8v3.1c0,0.3-0.1,0.6-0.3,0.8c-0.2,0.2-0.5,0.4-0.8,0.6c-1.1,0.6-2.5,1.1-4.2,1.5S114.4,130.1,112.6,130.1z
			 M117.3,112.2V112c0-2.1-0.5-3.8-1.5-4.9c-1-1.1-2.4-1.7-4.1-1.7c-1.1,0-2.1,0.2-2.9,0.7c-0.9,0.5-1.5,1.2-2,2.2s-0.7,2.2-0.7,3.6
			v0.2H117.3z"/>
		<path class="st0" d="M141.3,134.6c1.4,0,2.5-0.1,3.2-0.4c0.7-0.3,1.2-0.7,1.5-1.4c0.2-0.6,0.4-1.6,0.4-2.9v-0.4
			c-0.4,0.1-1.2,0.2-2.5,0.3c-1.3,0.2-2.1,0.2-2.6,0.2c-2.8,0-5.2-0.5-7-1.6c-1.9-1.1-3.3-2.6-4.2-4.6c-0.9-2-1.4-4.4-1.4-7.1v-4.1
			c0-2.8,0.5-5.1,1.4-7.1c0.9-2,2.3-3.5,4.2-4.6c1.9-1.1,4.2-1.6,7-1.6c0.9,0,1.9,0,2.8,0.1c0.9,0.1,1.7,0.1,2.4,0.2
			c0.7,0.1,1.7,0.3,2.9,0.5c1.2,0.2,2.1,0.4,2.6,0.6c0.6,0.1,0.9,0.3,1.1,0.5c0.2,0.2,0.3,0.5,0.3,0.9v27.3c0,2.5-0.4,4.5-1.3,6.1
			c-0.9,1.6-2.2,2.7-4,3.5c-1.8,0.7-4,1.1-6.7,1.1c-1.8,0-3.6-0.2-5.3-0.7c-1.8-0.4-3.2-0.9-4.4-1.5c-0.2-0.1-0.4-0.2-0.6-0.4
			c-0.2-0.1-0.3-0.3-0.4-0.4c-0.1-0.2-0.1-0.4-0.1-0.6v-2.7c0-0.8,0.4-1.1,1.1-0.9c1.4,0.3,3,0.7,4.8,1
			C138.2,134.5,139.8,134.6,141.3,134.6z M146.4,123.9v-18.3c-0.7-0.1-1.4-0.3-2.3-0.3c-0.8-0.1-1.8-0.1-2.8-0.1
			c-2.1,0-3.6,0.7-4.4,2c-0.8,1.3-1.2,3.2-1.2,5.6v4.1c0,1.1,0.1,2.1,0.3,3s0.5,1.7,0.9,2.4c0.4,0.7,1,1.2,1.8,1.6s1.7,0.5,2.7,0.5
			c0.6,0,1.4,0,2.5-0.1S145.6,124,146.4,123.9z"/>
		<path class="st0" d="M166.6,94.7c0,0.3-0.1,0.6-0.3,0.8c-0.2,0.2-0.5,0.3-0.7,0.3h-5.1c-0.3,0-0.5-0.1-0.8-0.3
			c-0.2-0.2-0.3-0.5-0.3-0.8v-4.7c0-0.3,0.1-0.5,0.3-0.7c0.2-0.2,0.5-0.3,0.8-0.3h5.1c0.3,0,0.5,0.1,0.7,0.3
			c0.2,0.2,0.3,0.5,0.3,0.7V94.7z M166.4,128.5c0,0.3-0.1,0.6-0.3,0.8c-0.2,0.2-0.5,0.3-0.8,0.3h-4.9c-0.3,0-0.6-0.1-0.8-0.3
			c-0.2-0.2-0.3-0.5-0.3-0.8v-27.7c0-0.3,0.1-0.5,0.3-0.7c0.2-0.2,0.5-0.3,0.8-0.3h4.9c0.3,0,0.6,0.1,0.8,0.3
			c0.2,0.2,0.3,0.4,0.3,0.8V128.5z"/>
		<path class="st0" d="M197,116.9c0,2.5-0.5,4.8-1.5,6.8c-1,2-2.4,3.6-4.3,4.7c-1.9,1.1-4.2,1.7-6.9,1.7c-2.7,0-5-0.6-6.9-1.7
			c-1.9-1.1-3.4-2.7-4.3-4.7c-1-2-1.4-4.3-1.4-6.8v-4.3c0-2.5,0.5-4.8,1.4-6.8s2.4-3.6,4.3-4.7s4.2-1.7,6.9-1.7c2.7,0,5,0.6,6.9,1.7
			c1.9,1.1,3.3,2.7,4.3,4.7c1,2,1.5,4.3,1.5,6.8V116.9z M190.1,116.9v-4.3c0-2.2-0.5-4-1.5-5.2c-1-1.3-2.4-1.9-4.2-1.9
			c-1.8,0-3.2,0.6-4.2,1.9c-1,1.3-1.5,3-1.5,5.2v4.3c0,2.2,0.5,4,1.5,5.2c1,1.3,2.4,1.9,4.2,1.9c1.8,0,3.2-0.6,4.2-1.9
			C189.6,120.8,190.1,119.1,190.1,116.9z"/>
		<path class="st0" d="M209.5,94.7c0,0.3-0.1,0.6-0.3,0.8c-0.2,0.2-0.5,0.3-0.7,0.3h-5.1c-0.3,0-0.5-0.1-0.8-0.3
			c-0.2-0.2-0.3-0.5-0.3-0.8v-4.7c0-0.3,0.1-0.5,0.3-0.7c0.2-0.2,0.5-0.3,0.8-0.3h5.1c0.3,0,0.5,0.1,0.7,0.3
			c0.2,0.2,0.3,0.5,0.3,0.7V94.7z M209.3,128.5c0,0.3-0.1,0.6-0.3,0.8c-0.2,0.2-0.5,0.3-0.8,0.3h-4.9c-0.3,0-0.6-0.1-0.8-0.3
			c-0.2-0.2-0.3-0.5-0.3-0.8v-27.7c0-0.3,0.1-0.5,0.3-0.7c0.2-0.2,0.5-0.3,0.8-0.3h4.9c0.3,0,0.6,0.1,0.8,0.3s0.3,0.4,0.3,0.8V128.5
			z"/>
		<path class="st0" d="M227.2,134.6c1.4,0,2.5-0.1,3.2-0.4c0.7-0.3,1.2-0.7,1.5-1.4c0.2-0.6,0.4-1.6,0.4-2.9v-0.4
			c-0.4,0.1-1.2,0.2-2.5,0.3c-1.3,0.2-2.1,0.2-2.6,0.2c-2.8,0-5.2-0.5-7-1.6c-1.9-1.1-3.3-2.6-4.2-4.6c-0.9-2-1.4-4.4-1.4-7.1v-4.1
			c0-2.8,0.5-5.1,1.4-7.1c0.9-2,2.3-3.5,4.2-4.6c1.9-1.1,4.2-1.6,7-1.6c0.9,0,1.9,0,2.8,0.1c0.9,0.1,1.7,0.1,2.4,0.2
			c0.7,0.1,1.7,0.3,2.9,0.5s2.1,0.4,2.6,0.6c0.6,0.1,0.9,0.3,1.1,0.5c0.2,0.2,0.3,0.5,0.3,0.9v27.3c0,2.5-0.4,4.5-1.3,6.1
			c-0.9,1.6-2.2,2.7-4,3.5c-1.8,0.7-4,1.1-6.7,1.1c-1.8,0-3.6-0.2-5.3-0.7c-1.8-0.4-3.2-0.9-4.4-1.5c-0.2-0.1-0.4-0.2-0.6-0.4
			c-0.2-0.1-0.3-0.3-0.4-0.4c-0.1-0.2-0.1-0.4-0.1-0.6v-2.7c0-0.8,0.4-1.1,1.1-0.9c1.4,0.3,3,0.7,4.8,1
			C224.1,134.5,225.7,134.6,227.2,134.6z M232.3,123.9v-18.3c-0.7-0.1-1.4-0.3-2.3-0.3c-0.8-0.1-1.8-0.1-2.8-0.1
			c-2.1,0-3.6,0.7-4.4,2c-0.8,1.3-1.2,3.2-1.2,5.6v4.1c0,1.1,0.1,2.1,0.3,3s0.5,1.7,0.9,2.4c0.4,0.7,1,1.2,1.8,1.6s1.7,0.5,2.7,0.5
			c0.6,0,1.4,0,2.5-0.1S231.5,124,232.3,123.9z"/>
		<path class="st0" d="M255.8,105.2c-2.8,0-5.6,0.5-8.5,1.4c-0.7,0.2-1.1-0.1-1.1-0.9v-3.2c0-0.3,0.1-0.6,0.2-0.8
			c0.2-0.2,0.4-0.4,0.9-0.6c1.1-0.5,2.4-0.9,4-1.2c1.6-0.3,3.3-0.5,5.2-0.5c2.3,0,4.2,0.4,5.8,1.1c1.6,0.7,2.9,1.9,3.7,3.4
			c0.9,1.5,1.3,3.4,1.3,5.6v18c0,0.4,0,0.6-0.1,0.8c-0.1,0.2-0.3,0.3-0.6,0.4c-1.6,0.4-3.1,0.8-4.6,1c-1.5,0.2-3.3,0.3-5.4,0.3
			c-2.9,0-5.3-0.3-7.1-0.9c-1.8-0.6-3.2-1.6-4.1-2.9c-0.9-1.3-1.3-3-1.3-5.1v-0.3c0-1.6,0.2-2.9,0.7-4c0.4-1.1,1.1-2,2.1-2.8
			c1-0.8,2.3-1.3,3.8-1.7c1.6-0.4,3.5-0.6,5.9-0.6h3.7v-2.3c0-1.7-0.4-2.8-1.1-3.4C258.7,105.6,257.5,105.2,255.8,105.2z
			 M260.5,124.4v-7.8h-3.7c-1.6,0-2.8,0.1-3.6,0.4c-0.8,0.3-1.3,0.7-1.5,1.3c-0.2,0.6-0.4,1.4-0.4,2.5v0.3c0,1,0.2,1.8,0.5,2.3
			c0.3,0.5,0.9,0.9,1.6,1.1c0.8,0.2,1.9,0.3,3.4,0.3C258.3,124.8,259.5,124.6,260.5,124.4z"/>
		<path class="st0" d="M282.5,124.4c1.6,0,2.7-0.2,3.2-0.6c0.5-0.4,0.8-1,0.8-1.7c0-0.6-0.2-1.1-0.5-1.5c-0.3-0.4-1-0.9-1.8-1.4
			l-7.2-4.4c-1.4-0.8-2.4-1.9-3.2-3.2c-0.8-1.3-1.2-2.6-1.2-4.1c0-5.3,3.4-7.9,10.1-7.9c3.5,0,6.6,0.6,9.3,1.7
			c0.4,0.2,0.7,0.3,0.9,0.5c0.2,0.2,0.3,0.5,0.3,0.8v3.2c0,0.8-0.4,1.1-1.1,0.9c-3.1-1-5.9-1.5-8.5-1.5c-1.3,0-2.3,0.1-2.9,0.4
			c-0.6,0.3-0.9,0.8-0.9,1.5c0,0.4,0.1,0.7,0.2,1c0.2,0.3,0.4,0.5,0.7,0.7c0.3,0.2,0.7,0.5,1.2,0.8l6.9,4.2c2,1.2,3.4,2.5,4.1,3.7
			c0.7,1.2,1,2.6,1,4c0,1.7-0.4,3.2-1.2,4.5c-0.8,1.3-2,2.3-3.5,3.1c-1.6,0.7-3.5,1.1-5.7,1.1c-3.5,0-6.6-0.6-9.3-1.7
			c-0.4-0.2-0.7-0.4-0.9-0.6c-0.1-0.2-0.2-0.4-0.2-0.7v-3.2c0-0.8,0.4-1.1,1.1-0.9C277.1,123.9,279.9,124.4,282.5,124.4z"/>
	</g>
	<g>
		<radialGradient id="SVGID_1_" cx="242.7074" cy="61.122" r="24.9148" gradientUnits="userSpaceOnUse">
			<stop  offset="0" style="stop-color:#FFCF01"/>
			<stop  offset="0.1337" style="stop-color:#FDB614"/>
			<stop  offset="0.3356" style="stop-color:#F8951D"/>
			<stop  offset="0.5291" style="stop-color:#F47C20"/>
			<stop  offset="0.7095" style="stop-color:#F26822"/>
			<stop  offset="0.8716" style="stop-color:#F15B22"/>
			<stop  offset="1" style="stop-color:#F15623"/>
		</radialGradient>
		<path class="st2" d="M247.7,34.1c-1.6-1.6-3.3-3-5.1-4.3c0,0,0,0,0,0c0.2,0.1,0.4,0.3,0.5,0.4c0.7,0.5,1.3,1,1.9,1.7
			c7.8,7.8,7.8,20.5,0,28.3c-5,5-12,6.8-18.5,5.4c1,8.3,4.6,16.3,10.9,22.6c1.6,1.6,3.3,3,5.1,4.3c1.8-1.3,3.5-2.7,5.1-4.3
			C262.6,73.2,262.6,49,247.7,34.1z"/>
		<radialGradient id="SVGID_2_" cx="243.3503" cy="46.1442" r="21.0741" gradientUnits="userSpaceOnUse">
			<stop  offset="0" style="stop-color:#F05323"/>
			<stop  offset="0.6894" style="stop-color:#CE2C1E"/>
			<stop  offset="1" style="stop-color:#BE141B"/>
		</radialGradient>
		<path class="st3" d="M243.9,46c-4,4-10.5,4.2-14.7,0.4c-2.5,6.1-3.4,12.7-2.7,19.1C233,67,240,65.2,245,60.2
			c7.8-7.8,7.8-20.5,0-28.3c-0.6-0.6-1.2-1.1-1.9-1.7c0.3,0.2,0.5,0.4,0.7,0.7C248,35.1,248,41.9,243.9,46z"/>
	</g>
</g>
</svg>
